<svg width="35" height="35" viewBox="0 0 35 35" fill="none" xmlns="http://www.w3.org/2000/svg">
<g clip-path="url(#clip0_11_15)">
<mask id="mask0_11_15" style="mask-type:luminance" maskUnits="userSpaceOnUse" x="0" y="0" width="35" height="35">
<path d="M0 0H35V35H0V0Z" fill="white"/>
</mask>
<g mask="url(#mask0_11_15)">
<path d="M24.2521 24.1544C25.5427 24.0202 26.5227 22.8959 26.479 21.5469C26.4571 20.8985 26.1854 20.2837 25.7206 19.8311C25.2558 19.3786 24.6339 19.1233 23.9852 19.1188H23.8948C22.5137 19.1625 21.4448 20.3321 21.4885 21.7263C21.5352 22.4015 21.8021 22.9848 22.2031 23.3888C20.6879 26.4031 18.3721 28.6052 14.8969 30.4486C12.5373 31.7086 10.0873 32.1577 7.63875 31.8427C5.63354 31.5729 4.07458 30.6731 3.09458 29.19C1.66979 26.9879 1.53708 24.6036 2.73875 22.2206C3.58458 20.5129 4.92187 19.2529 5.7677 18.6244C5.53832 17.8694 5.34512 17.1039 5.18875 16.3304C-1.27021 21.0525 -0.600838 27.4371 1.35625 30.45C2.82625 32.6988 5.81 34.0929 9.10729 34.0929C10.0074 34.0983 10.9048 33.9925 11.779 33.7779C17.481 32.655 21.8006 29.2367 24.2506 24.1559M32.0892 18.5806C28.7044 14.579 23.7154 12.3754 18.0148 12.3754H17.3017C17.0982 11.9709 16.7866 11.6308 16.4015 11.3926C16.0164 11.1545 15.5728 11.0278 15.12 11.0265H15.0296C13.65 11.0717 12.5796 12.2413 12.6248 13.6354C12.6685 14.9844 13.7827 16.0621 15.1185 16.0621H15.209C15.6794 16.0379 16.1336 15.8818 16.5194 15.6115C16.9053 15.3412 17.2072 14.9677 17.3906 14.5338H18.1927C21.5775 14.5338 24.7844 15.5225 27.6792 17.4563C29.906 18.9409 31.5102 20.8731 32.3998 23.2123C33.1581 25.0994 33.1144 26.9427 32.3123 28.5177C31.064 30.9006 28.9712 32.2044 26.2092 32.2044C24.4285 32.2044 22.7354 31.6648 21.8444 31.2594C21.2033 31.8314 20.5346 32.3717 19.8406 32.8781C21.7554 33.7779 23.7154 34.2723 25.5865 34.2723C29.8623 34.2723 33.024 31.8894 34.2271 29.5065C35.5177 26.899 35.4287 22.4029 32.0892 18.5806ZM9.46458 24.9186C9.50833 26.2675 10.6225 27.3467 11.9583 27.3467H12.0473C13.4283 27.3029 14.4973 26.1334 14.4535 24.7392C14.4317 24.0908 14.16 23.476 13.6952 23.0234C13.2304 22.5709 12.6085 22.3156 11.9598 22.3111H11.8694C11.7634 22.3027 11.6569 22.3177 11.5573 22.3548C9.73145 19.2981 8.97458 15.9717 9.24145 12.374C9.41937 9.67606 10.3104 7.33835 11.8694 5.4046C13.1615 3.7421 15.6552 2.93273 17.3483 2.88752C22.069 2.7971 24.0727 8.73252 24.2069 11.1154C24.7858 11.2496 25.7658 11.5646 26.4337 11.7892C25.8985 4.50627 21.4462 0.729187 17.169 0.729187C13.1615 0.729187 9.46458 3.65169 7.99458 7.96835C5.94562 13.7229 7.28145 19.2529 9.77666 23.6148C9.55354 23.9298 9.41937 24.4242 9.46458 24.9186Z" fill="#B8BEA8"/>
</g>
</g>
<defs>
<clipPath id="clip0_11_15">
<rect width="35" height="35" fill="white"/>
</clipPath>
</defs>
</svg>
