<svg width="35" height="35" viewBox="0 0 35 35" fill="none" xmlns="http://www.w3.org/2000/svg">
<path d="M7.59009 5.58385C5.57978 8.47271 5.82997 12.2317 7.36587 15.3018L7.47825 15.52L7.55017 15.6584L7.59501 15.7379L7.67513 15.8812C7.72271 15.9651 7.77156 16.0488 7.82169 16.1325L7.90536 16.2703C7.96078 16.3595 8.01747 16.4482 8.07544 16.5364L8.1479 16.6482C8.22793 16.7678 8.31005 16.8864 8.39427 17.004L8.40138 17.013L8.44294 17.069C8.51604 17.1697 8.59087 17.2693 8.66743 17.3679L8.75192 17.4754C8.8201 17.5609 8.88928 17.646 8.95946 17.7308L9.03876 17.8254C9.1331 17.9364 9.22962 18.0474 9.32778 18.1557L9.33353 18.1617L9.34474 18.174C9.44071 18.2787 9.53888 18.3813 9.63868 18.4838L9.73275 18.5787C9.81004 18.6562 9.88824 18.7328 9.96735 18.8087L10.0633 18.9C10.1689 18.9997 10.2761 19.0972 10.3849 19.1926L10.3898 19.1969L10.4459 19.2445C10.5419 19.3278 10.6393 19.41 10.7379 19.4912L10.8588 19.5877C10.9392 19.652 11.0203 19.7155 11.1021 19.778L11.2325 19.8767C11.3228 19.9431 11.4138 20.0084 11.5057 20.0728L11.605 20.1433L11.6326 20.163C11.7195 20.2231 11.809 20.2808 11.8978 20.3385L12.0127 20.4151C12.1494 20.5012 12.288 20.5868 12.428 20.6694L12.5429 20.7342C12.6459 20.7936 12.7498 20.8519 12.8546 20.9089L13.0271 20.9981L13.2502 21.114L13.3017 21.1389L13.393 21.1829C13.5096 21.2389 13.6275 21.2935 13.7465 21.3467L13.8212 21.3801C13.9574 21.4397 14.0948 21.4969 14.2335 21.5518L14.3342 21.5912C14.4627 21.6411 14.5924 21.6891 14.7233 21.7353L14.7722 21.7522C14.9155 21.8025 15.0604 21.8487 15.2061 21.8944L15.3109 21.9256C15.4591 21.9704 15.6059 22.0235 15.7588 22.0519C25.4803 23.8246 28.3041 16.2102 28.3041 16.2102C25.9323 19.3 21.7227 20.1149 17.7341 19.2076C17.5829 19.1734 17.4363 19.1261 17.2889 19.0829L17.1779 19.049C17.0341 19.0051 16.8912 18.9586 16.7492 18.9095L16.6904 18.8885C16.5637 18.8436 16.4377 18.7968 16.3125 18.7482L16.2064 18.7067C16.0691 18.6525 15.9331 18.596 15.7984 18.5371L15.7169 18.5008C15.6015 18.4489 15.4867 18.3956 15.3727 18.3408L15.2731 18.2929C15.1837 18.2495 15.0954 18.2033 15.0068 18.1576L14.8293 18.0644C14.7216 18.0068 14.6152 17.9471 14.5102 17.8855L14.4025 17.8256C14.2627 17.7428 14.1241 17.6579 13.9869 17.5708L13.8748 17.4962C13.7752 17.4322 13.6767 17.3666 13.5792 17.2996L13.4838 17.2326C13.3898 17.1664 13.2967 17.0991 13.2043 17.0308L13.0804 16.937C12.9955 16.8723 12.9115 16.8065 12.8283 16.7398L12.7159 16.6496C12.6099 16.5628 12.5051 16.4745 12.4018 16.3846L12.3673 16.3559C12.2557 16.2575 12.1456 16.1574 12.037 16.0557L11.944 15.966C11.8635 15.8899 11.7844 15.8123 11.7067 15.7333L11.6137 15.6403C11.5147 15.5392 11.4177 15.4365 11.3225 15.3324L11.308 15.3169C11.2074 15.2068 11.109 15.0947 11.0127 14.9808L10.9353 14.8889C10.8633 14.8023 10.7925 14.7147 10.7229 14.6262L10.6449 14.5291C10.5616 14.4213 10.4797 14.3124 10.3994 14.2023C8.18509 11.1817 7.38939 7.01557 9.15935 3.59432M13.8299 3.14971C12.3763 5.2415 12.4551 8.04232 13.5893 10.2544C13.7793 10.6262 13.994 10.9848 14.2322 11.3277C14.4498 11.6402 14.6915 12.0115 14.9806 12.2623C15.0853 12.3777 15.1949 12.4903 15.3068 12.6008L15.3926 12.6858C15.5009 12.7914 15.6119 12.8946 15.7257 12.9954L15.7393 13.0071L15.7426 13.0104C15.869 13.1212 15.9994 13.2275 16.1317 13.3325L16.2201 13.4014C16.3529 13.5031 16.4883 13.6032 16.6272 13.6987L16.639 13.7077L16.8249 13.8299L16.9129 13.8881C17.0121 13.9519 17.1127 14.0136 17.2148 14.073L17.2575 14.0981C17.3457 14.1488 17.4346 14.1985 17.5241 14.2472L17.619 14.2964L17.8054 14.3932L17.8336 14.406C17.9614 14.4693 18.0912 14.5297 18.223 14.5873L18.3088 14.6229C18.4144 14.6677 18.5208 14.7108 18.6279 14.7522L18.7647 14.8025C18.862 14.8386 18.9593 14.8717 19.0578 14.9045L19.1901 14.9469C19.3299 14.9901 19.4682 15.0451 19.6137 15.0694C27.1195 16.3127 28.8523 10.5336 28.8523 10.5336C27.2904 12.7835 24.2654 13.8567 21.0375 13.0189C20.8948 12.9812 20.753 12.9403 20.6123 12.8961L20.4846 12.8548C20.3848 12.8227 20.2857 12.7886 20.1874 12.7526L20.0531 12.7025C19.9457 12.6611 19.8389 12.618 19.7329 12.5732L19.6468 12.5368C19.5148 12.4792 19.3843 12.4185 19.2552 12.3547L19.0589 12.2549L18.9457 12.1967C18.8618 12.1511 18.779 12.1042 18.6971 12.0561L18.6378 12.0225C18.5363 11.9633 18.436 11.9021 18.337 11.8387L18.2462 11.7783L18.0515 11.6492C17.9138 11.5537 17.7785 11.4548 17.6458 11.3526L17.5544 11.2804C16.1416 10.165 15.0216 8.64033 14.4892 6.91166C13.9311 5.11873 14.0514 3.10623 15.0183 1.47271M19.078 1.33107C18.2211 2.59217 18.1368 4.15869 18.7316 5.55158C19.3586 7.03006 20.6434 8.18971 22.1433 8.73986L22.3297 8.80412L22.4118 8.83037C22.5001 8.85826 22.5879 8.89053 22.6792 8.90748C26.8237 9.70838 27.9478 6.78096 28.2469 6.34975C27.2623 7.76752 25.6074 8.10795 23.5769 7.61494C23.4108 7.57249 23.2469 7.52184 23.0858 7.46318C22.8872 7.39271 22.6924 7.31184 22.5023 7.22092C22.1414 7.04748 21.7987 6.83845 21.4793 6.59693C19.6624 5.21826 18.5339 2.58861 19.7195 0.446777" fill="#0868AC"/>
<path d="M18.1451 26.3307H16.9895C16.9569 26.3321 16.9255 26.3439 16.9001 26.3645C16.8747 26.385 16.8564 26.4131 16.8481 26.4447L16.438 28.3423L16.0278 30.24C16.0198 30.2717 16.0017 30.2999 15.9762 30.3205C15.9508 30.341 15.9194 30.3528 15.8867 30.354H15.0689C14.2598 30.354 14.3533 29.7943 14.519 29.0276L14.5239 29.0043L14.542 28.9075L14.5452 28.8895L14.5822 28.6926L14.6218 28.4818L14.6639 28.2671L14.8504 27.3561L15.0372 26.445C15.0407 26.431 15.041 26.4165 15.0379 26.4025C15.0348 26.3884 15.0285 26.3753 15.0194 26.3642C15.0103 26.353 14.9988 26.3442 14.9857 26.3383C14.9726 26.3324 14.9583 26.3297 14.9439 26.3304H13.758C13.7254 26.3316 13.694 26.3434 13.6686 26.364C13.6432 26.3846 13.6253 26.413 13.6175 26.4447L13.3624 27.6544L13.1075 28.8643L13.107 28.866L13.0834 28.9786C12.7898 30.3193 12.8674 31.5982 14.4638 31.6384L14.5102 31.6392H17.0158C17.0484 31.6379 17.0798 31.6262 17.1053 31.6056C17.1307 31.5851 17.1488 31.5568 17.1568 31.5252L17.6972 28.9852L18.2375 26.445C18.2509 26.3821 18.2093 26.3309 18.1451 26.3307ZM5.77036 26.3173H4.50161C4.46881 26.3185 4.43726 26.3302 4.41161 26.3506C4.38596 26.3711 4.36757 26.3993 4.35915 26.431L4.23884 26.962L4.11853 27.493C4.10458 27.5557 4.14532 27.6068 4.20958 27.6068H5.48817C5.52087 27.6054 5.55226 27.5936 5.57775 27.5731C5.60324 27.5526 5.62149 27.5244 5.62982 27.4928L5.74603 26.962L5.86224 26.4313C5.87563 26.3687 5.83462 26.3173 5.77036 26.3173ZM5.40231 27.9699H4.12345C4.09065 27.9711 4.05909 27.9828 4.03344 28.0033C4.0078 28.0238 3.98941 28.0519 3.98099 28.0837L3.80134 28.8794L3.62196 29.6748L3.57192 29.9029L3.39939 30.715L3.22712 31.5273C3.21372 31.59 3.1861 31.6911 3.1656 31.7518C3.1656 31.7518 2.92661 32.4628 2.52493 32.4546L2.47462 32.4535L2.12708 32.4472C2.09446 32.448 2.06269 32.4593 2.03691 32.4793C2.01114 32.4993 1.99243 32.5271 1.98353 32.5585L1.85091 33.116L1.71856 33.6733C1.70353 33.7356 1.74399 33.787 1.80771 33.7881C2.03548 33.7909 2.54571 33.7966 2.85442 33.7966C3.85767 33.7966 4.38677 33.2407 4.72556 31.6411L5.12231 29.8052L5.49446 28.0834C5.50786 28.0213 5.4663 27.9699 5.40231 27.9699ZM28.9499 27.5395L28.8969 27.3205L28.8447 27.0963L28.8181 26.9831C28.7142 26.5792 28.4093 26.3465 27.7471 26.3465L26.7162 26.3454L25.7668 26.3441H24.6985C24.6658 26.3452 24.6344 26.3569 24.609 26.3775C24.5836 26.3981 24.5656 26.4264 24.5577 26.4581L24.5104 26.6812L24.4546 26.9448L24.439 27.0189L23.9581 29.272L23.5014 31.4109C23.4877 31.4738 23.4834 31.5509 23.491 31.582C23.4987 31.6135 23.622 31.6392 23.686 31.6392H24.6496C24.7138 31.6392 24.795 31.6277 24.83 31.6135C24.865 31.5993 24.9167 31.4732 24.9296 31.4106L25.1008 30.5632L25.2722 29.7155L25.2725 29.7142L25.2954 29.6012L25.5033 28.6278L25.6867 27.7681C25.6948 27.7365 25.7129 27.7083 25.7383 27.6878C25.7636 27.6673 25.7949 27.6554 25.8275 27.6541L28.8597 27.6527C28.924 27.6533 28.9644 27.6022 28.9499 27.5395ZM32.8533 25.5598L32.6197 25.5607H31.6493C31.6137 25.5626 31.579 25.5722 31.5475 25.5889C31.516 25.6056 31.4885 25.6289 31.4669 25.6572L29.3207 28.8012C29.2846 28.8542 29.2433 28.8466 29.2291 28.7842L29.0711 28.0916C29.0626 28.0598 29.0442 28.0316 29.0185 28.0111C28.9928 27.9907 28.9612 27.979 28.9283 27.9779H27.5488C27.4846 27.9779 27.4466 28.0282 27.4641 28.0897L28.0823 30.2556C28.0998 30.3174 28.1012 30.4186 28.0853 30.4809L27.816 31.529C27.7999 31.5913 27.8392 31.6419 27.9035 31.6419H29.2671C29.3001 31.6406 29.3318 31.629 29.3579 31.6087C29.384 31.5885 29.4031 31.5606 29.4126 31.529L29.6822 30.4809C29.7034 30.407 29.737 30.3372 29.7815 30.2745L33.2656 25.6504C33.3044 25.5989 33.2834 25.5571 33.2194 25.5577L32.8533 25.5598ZM21.8922 28.2721V28.271C21.8875 28.304 21.8712 28.3343 21.8462 28.3564C21.8212 28.3784 21.7891 28.3909 21.7558 28.3916H20.0066C19.9459 28.3916 19.9153 28.3505 19.9243 28.2997L19.9259 28.2956L19.9249 28.2961L19.9257 28.2904L19.9336 28.2606C20.1007 27.8165 20.4408 27.525 21.0804 27.525C21.8006 27.5248 21.9412 27.8764 21.8922 28.2721ZM21.379 26.253C19.1338 26.253 18.6017 27.6158 18.3031 28.9915C18.0048 30.3937 18.0302 31.7043 20.3539 31.7043H20.6355L20.7055 31.704H20.7219L21.0008 31.7032H21.0058C21.6193 31.7007 22.2349 31.6961 22.484 31.6941C22.5165 31.6926 22.5476 31.6806 22.5727 31.6599C22.5978 31.6392 22.6155 31.6109 22.6231 31.5793L22.7172 31.1196L22.7355 31.0302L22.8476 30.4817C22.8512 30.4678 22.8515 30.4533 22.8484 30.4393C22.8453 30.4252 22.839 30.4121 22.8299 30.401C22.8208 30.3899 22.8093 30.3811 22.7961 30.3752C22.783 30.3694 22.7687 30.3667 22.7544 30.3674H20.6656C19.8346 30.3674 19.588 30.1468 19.679 29.4976H23.018L23.0177 29.4979L23.0199 29.4976C23.0463 29.4966 23.0719 29.4879 23.0935 29.4726C23.1151 29.4573 23.1318 29.4361 23.1416 29.4115L23.1495 29.3825L23.1492 29.3828C23.645 27.5127 23.5028 26.2533 21.379 26.253ZM10.7669 28.265L10.7352 28.3768L10.4831 29.2707L10.2309 30.164C10.2205 30.1956 10.2007 30.2232 10.1742 30.2433C10.1477 30.2634 10.1157 30.2749 10.0825 30.2764H8.7481C7.73583 30.2764 7.48919 29.4845 7.73583 28.3169C7.9822 27.1225 8.46536 26.3802 9.46177 26.305C10.8235 26.2021 11.0958 27.1597 10.7669 28.265ZM11.6824 30.2077C11.6824 30.2077 12.3115 28.6798 12.4543 27.7977C12.6492 26.6167 12.0578 24.9033 9.77349 24.9033C7.50231 24.9033 6.51575 26.5388 6.1395 28.3169C5.76325 30.1079 6.25626 31.6783 8.51458 31.6654L10.2963 31.6589L11.9613 31.6529C11.9943 31.6512 12.026 31.6395 12.0521 31.6192C12.0782 31.599 12.0975 31.5712 12.1073 31.5396L12.3974 30.4333C12.4135 30.371 12.3744 30.3201 12.3102 30.3196L12.0321 30.3179L11.754 30.3163C11.6996 30.316 11.6684 30.2805 11.675 30.2337L11.6824 30.2077ZM22.9261 29.1848C22.9261 29.1949 22.9242 29.2048 22.9203 29.2141C22.9165 29.2234 22.9109 29.2319 22.9038 29.239C22.8967 29.2461 22.8882 29.2518 22.879 29.2556C22.8697 29.2595 22.8597 29.2615 22.8497 29.2615C22.8396 29.2615 22.8297 29.2596 22.8204 29.2557C22.8111 29.2519 22.8026 29.2463 22.7955 29.2392C22.7884 29.2321 22.7827 29.2236 22.7789 29.2144C22.775 29.2051 22.773 29.1951 22.773 29.1851C22.7729 29.1648 22.781 29.1453 22.7953 29.1309C22.8096 29.1165 22.8291 29.1084 22.8494 29.1084C22.8697 29.1083 22.8892 29.1164 22.9036 29.1307C22.918 29.145 22.9261 29.1645 22.9261 29.1848Z" fill="#131B28"/>
</svg>
