<svg width="32" height="32" viewBox="0 0 32 32" fill="none" xmlns="http://www.w3.org/2000/svg">
<path d="M11.9043 24.53C11.9043 24.53 10.7125 25.2235 12.7535 25.4575C15.2265 25.74 16.4903 25.6995 19.2148 25.1845C19.2148 25.1845 19.9325 25.6333 20.933 26.0223C14.8233 28.6398 7.10601 25.8705 11.9043 24.53ZM11.1573 21.1138C11.1573 21.1138 9.82026 22.1035 11.863 22.315C14.5048 22.5878 16.5905 22.61 20.2015 21.915C20.2015 21.915 20.6998 22.4213 21.4845 22.6978C14.099 24.8578 5.87301 22.8678 11.1573 21.1138Z" fill="#0074BD"/>
<path d="M17.4505 15.3177C18.9568 17.0515 17.0555 18.6102 17.0555 18.6102C17.0555 18.6102 20.8778 16.6375 19.1228 14.166C17.483 11.8622 16.226 10.718 23.0315 6.771C23.0315 6.77125 12.3488 9.4385 17.4505 15.3177Z" fill="#EA2D2E"/>
<path d="M25.5308 27.0572C25.5308 27.0572 26.413 27.7847 24.5588 28.347C21.0333 29.415 9.88226 29.737 6.78526 28.3897C5.67251 27.9052 7.76001 27.2335 8.41676 27.0917C9.10151 26.9435 9.49251 26.9705 9.49251 26.9705C8.25426 26.0987 1.48926 28.683 6.05676 29.4242C18.512 31.4432 28.761 28.515 25.5308 27.0572ZM12.478 17.5735C12.478 17.5735 6.80651 18.9207 10.4698 19.4105C12.0168 19.6175 15.0993 19.57 17.9725 19.329C20.32 19.1317 22.6758 18.7105 22.6758 18.7105C22.6758 18.7105 21.8488 19.0652 21.2498 19.4737C15.4893 20.989 4.36376 20.2832 7.56701 18.7342C10.275 17.4245 12.478 17.5735 12.478 17.5735ZM22.6523 23.2602C28.5075 20.2185 25.8 17.2952 23.9103 17.689C23.4483 17.7852 23.241 17.869 23.241 17.869C23.241 17.869 23.413 17.5992 23.741 17.4832C27.4793 16.1695 30.3538 21.359 22.5353 23.4145C22.5353 23.414 22.625 23.3327 22.6523 23.2602Z" fill="#0074BD"/>
<path d="M19.1228 0.396729C19.1228 0.396729 22.3648 3.64073 16.047 8.62748C10.9805 12.629 14.8918 14.91 16.0453 17.5172C13.0875 14.849 10.918 12.4997 12.3733 10.3135C14.5103 7.10498 20.4305 5.54873 19.1228 0.396729Z" fill="#EA2D2E"/>
<path d="M13.0535 31.5052C18.6725 31.8645 27.3035 31.3052 27.5078 28.6462C27.5078 28.6462 27.115 29.6542 22.8635 30.454C18.067 31.357 12.15 31.2517 8.64175 30.6725C8.64175 30.6727 9.3605 31.2677 13.0535 31.5052Z" fill="#0074BD"/>
</svg>
