<svg width="35" height="35" viewBox="0 0 35 35" fill="none" xmlns="http://www.w3.org/2000/svg">
<path d="M29.1667 7.29169H23.625L22.1667 5.10419C21.875 4.66669 21.4375 4.44794 20.9271 4.44794H13.9271C13.4167 4.44794 12.9792 4.66669 12.6875 5.10419L11.2292 7.29169H5.83332C4.22916 7.29169 2.91666 8.60419 2.91666 10.2084V27.7084C2.91666 29.3125 4.22916 30.625 5.83332 30.625H29.1667C30.7708 30.625 32.0833 29.3125 32.0833 27.7084V10.2084C32.0833 8.60419 30.7708 7.29169 29.1667 7.29169Z" fill="#B8BEA8"/>
<path d="M8.02082 11.6667H22.6042C23.0417 11.6667 23.3333 11.9584 23.3333 12.3959V24.0625C23.3333 24.5 23.0417 24.7917 22.6042 24.7917H8.02082C7.58332 24.7917 7.29166 24.5 7.29166 24.0625V12.3959C7.29166 11.9584 7.58332 11.6667 8.02082 11.6667Z" fill="#F57C00"/>
<path d="M13.7812 16.0417L8.75 23.3334H18.8125L13.7812 16.0417Z" fill="#942A09"/>
<path d="M19.6875 16.7709C20.4929 16.7709 21.1458 16.1179 21.1458 15.3125C21.1458 14.5071 20.4929 13.8542 19.6875 13.8542C18.8821 13.8542 18.2292 14.5071 18.2292 15.3125C18.2292 16.1179 18.8821 16.7709 19.6875 16.7709Z" fill="#FFF9C4"/>
<path d="M18.375 18.9583L14.875 23.3333H21.875L18.375 18.9583Z" fill="#BF360C"/>
<path d="M24.7917 7.29165H29.1667V6.70831C29.1667 6.1979 28.8021 5.83331 28.2917 5.83331H25.6667C25.1562 5.83331 24.7917 6.1979 24.7917 6.70831V7.29165Z" fill="#B8BEA8"/>
<path d="M27.7083 14.5833C28.5137 14.5833 29.1667 13.9304 29.1667 13.125C29.1667 12.3195 28.5137 11.6666 27.7083 11.6666C26.9029 11.6666 26.25 12.3195 26.25 13.125C26.25 13.9304 26.9029 14.5833 27.7083 14.5833Z" fill="#B8BEA8"/>
<path d="M27.7083 18.9583C28.5137 18.9583 29.1667 18.3054 29.1667 17.5C29.1667 16.6945 28.5137 16.0416 27.7083 16.0416C26.9029 16.0416 26.25 16.6945 26.25 17.5C26.25 18.3054 26.9029 18.9583 27.7083 18.9583Z" fill="#B8BEA8"/>
<path d="M27.7083 23.3333C28.5137 23.3333 29.1667 22.6804 29.1667 21.875C29.1667 21.0695 28.5137 20.4166 27.7083 20.4166C26.9029 20.4166 26.25 21.0695 26.25 21.875C26.25 22.6804 26.9029 23.3333 27.7083 23.3333Z" fill="#B8BEA8"/>
</svg>
