<svg width="35" height="35" viewBox="0 0 35 35" fill="none" xmlns="http://www.w3.org/2000/svg">
<path fill-rule="evenodd" clip-rule="evenodd" d="M6.01042 7C4.94679 7 3.92672 7.42252 3.17462 8.17462C2.42252 8.92672 2 9.94679 2 11.0104V25.5938C2 26.6574 2.42252 27.6774 3.17462 28.4295C3.92672 29.1816 4.94679 29.6042 6.01042 29.6042H29.3438C30.4074 29.6042 31.4274 29.1816 32.1795 28.4295C32.9316 27.6774 33.3542 26.6574 33.3542 25.5938V11.0104C33.3542 9.94679 32.9316 8.92672 32.1795 8.17462C31.4274 7.42252 30.4074 7 29.3438 7H6.01042ZM11.0125 13.0317C10.7748 12.8765 10.486 12.8199 10.2073 12.8737C9.92859 12.9276 9.68172 13.0877 9.51888 13.3202C9.35603 13.5527 9.28997 13.8395 9.33466 14.1198C9.37934 14.4001 9.53127 14.6521 9.75833 14.8225L17.05 19.9267C17.2338 20.0553 17.4527 20.1243 17.6771 20.1243C17.9014 20.1243 18.1204 20.0553 18.3042 19.9267L25.5958 14.8225C25.7186 14.7424 25.8241 14.6383 25.9059 14.5166C25.9877 14.3949 26.0442 14.258 26.072 14.114C26.0998 13.97 26.0984 13.8219 26.0678 13.6785C26.0372 13.535 25.9781 13.3992 25.894 13.2791C25.8099 13.159 25.7025 13.057 25.5781 12.9792C25.4538 12.9015 25.3151 12.8495 25.1703 12.8264C25.0255 12.8033 24.8775 12.8096 24.7351 12.8449C24.5928 12.8801 24.459 12.9437 24.3417 13.0317L17.6771 17.6969L11.0125 13.0317Z" fill="#B8BEA8"/>
</svg>
