<svg width="35" height="35" viewBox="0 0 35 35" fill="none" xmlns="http://www.w3.org/2000/svg">
<g clip-path="url(#clip0_15_6)">
<path d="M17.5003 0C11.7775 0 7.08749 4.676 7.08749 10.3831C7.08749 12.5944 7.79379 14.6496 8.98904 16.3387L16.2295 28.8557C17.2434 30.1805 17.9175 29.9289 18.7607 28.7858L26.747 15.1953C26.908 14.9034 27.0347 14.5925 27.1449 14.2751C27.6516 13.0401 27.9122 11.718 27.9121 10.3831C27.9125 4.676 23.2239 0 17.5003 0ZM17.5003 4.865C20.5824 4.865 23.0331 7.3101 23.0331 10.3831C23.0331 13.4561 20.5824 15.9005 17.5003 15.9005C14.4186 15.9005 11.9668 13.4568 11.9668 10.3834C11.9668 7.3101 14.4186 4.86535 17.5 4.86535" fill="#B8BEA8"/>
<path d="M24.1195 17.1178L24.1027 17.1619L24.1174 17.1216L24.1195 17.1178ZM22.3468 25.6739L21.8627 26.2724C22.5172 26.3515 23.1507 26.4442 23.744 26.5566L21.8263 27.1246L24.3859 27.8054L26.2937 27.2037C27.4655 27.5968 29.0881 28.0773 29.6257 28.6237H25.8002L26.1803 29.7353H30.15C30.1381 30.3618 29.0181 30.8707 27.9485 31.283L25.2357 30.6964L22.6796 31.6123L25.4096 32.2353C23.8157 32.6693 21.1396 32.9332 18.9241 33.0547L18.831 31.7807H16.1689L16.0755 33.0547C13.86 32.9332 11.1842 32.6697 9.59 32.2357L12.3203 31.6123L9.7643 30.6964L7.0511 31.283C5.9969 30.9627 4.86185 30.3618 4.84995 29.7353H8.82L9.2001 28.6237H5.3746C5.9122 28.0773 7.5348 27.5968 8.7066 27.2037L10.6144 27.8054L13.174 27.1246L11.2563 26.5566C11.8757 26.4422 12.4985 26.348 13.1239 26.2741L12.6469 25.6746C7.47215 26.2125 3.17135 27.3581 2.04365 29.1672C0.244999 32.0505 6.8803 34.951 17.2795 34.9961C17.4342 35.0038 17.5868 34.9982 17.731 34.9961C28.1242 34.9485 34.7536 32.0491 32.9563 29.1672C31.8279 27.3574 27.5247 26.2115 22.3468 25.6739Z" fill="#B8BEA8"/>
</g>
<defs>
<clipPath id="clip0_15_6">
<rect width="35" height="35" fill="white"/>
</clipPath>
</defs>
</svg>
