<svg width="24" height="24" viewBox="0 0 24 24" fill="none" xmlns="http://www.w3.org/2000/svg">
<path d="M19.3333 2.33333C19.3333 2.95217 19.0875 3.54566 18.6499 3.98325C18.2123 4.42083 17.6188 4.66667 17 4.66667C16.3812 4.66667 15.7877 4.42083 15.3501 3.98325C14.9125 3.54566 14.6667 2.95217 14.6667 2.33333C14.6667 1.71449 14.9125 1.121 15.3501 0.683418C15.7877 0.245833 16.3812 0 17 0C17.6188 0 18.2123 0.245833 18.6499 0.683418C19.0875 1.121 19.3333 1.71449 19.3333 2.33333Z" fill="#B8BEA8"/>
<path fill-rule="evenodd" clip-rule="evenodd" d="M17 3.33333C17.2652 3.33333 17.5196 3.22798 17.7071 3.04044C17.8946 2.8529 18 2.59855 18 2.33333C18 2.06812 17.8946 1.81376 17.7071 1.62623C17.5196 1.43869 17.2652 1.33333 17 1.33333C16.7348 1.33333 16.4804 1.43869 16.2929 1.62623C16.1054 1.81376 16 2.06812 16 2.33333C16 2.59855 16.1054 2.8529 16.2929 3.04044C16.4804 3.22798 16.7348 3.33333 17 3.33333ZM17 4.66667C17.3064 4.66667 17.6098 4.60631 17.8929 4.48905C18.176 4.37179 18.4332 4.19992 18.6499 3.98325C18.8666 3.76658 19.0385 3.50935 19.1557 3.22626C19.273 2.94317 19.3333 2.63975 19.3333 2.33333C19.3333 2.02692 19.273 1.7235 19.1557 1.44041C19.0385 1.15731 18.8666 0.900088 18.6499 0.683418C18.4332 0.466748 18.176 0.294876 17.8929 0.177615C17.6098 0.0603536 17.3064 -4.56598e-09 17 0C16.3812 9.22141e-09 15.7877 0.245833 15.3501 0.683418C14.9125 1.121 14.6667 1.71449 14.6667 2.33333C14.6667 2.95217 14.9125 3.54566 15.3501 3.98325C15.7877 4.42083 16.3812 4.66667 17 4.66667ZM8.66666 6.66667C8.31304 6.66667 7.9739 6.80714 7.72385 7.05719C7.4738 7.30724 7.33333 7.64638 7.33333 8C7.33333 8.35362 7.4738 8.69276 7.72385 8.94281C7.9739 9.19286 8.31304 9.33333 8.66666 9.33333H13.3333V22.6667C13.3333 23.0203 13.4738 23.3594 13.7239 23.6095C13.9739 23.8595 14.313 24 14.6667 24C15.0203 24 15.3594 23.8595 15.6095 23.6095C15.8595 23.3594 16 23.0203 16 22.6667V16.6667H18V22.6667C18 23.0203 18.1405 23.3594 18.3905 23.6095C18.6406 23.8595 18.9797 24 19.3333 24C19.687 24 20.0261 23.8595 20.2761 23.6095C20.5262 23.3594 20.6667 23.0203 20.6667 22.6667V14.6113C21.6534 14.4415 22.5406 13.9079 23.1531 13.1159C23.7656 12.324 24.059 11.3311 23.9753 10.3334C23.8915 9.33568 23.4368 8.4056 22.7009 7.72677C21.9649 7.04794 21.0012 6.66968 20 6.66667H8.66666ZM22 10.6667C22 10.313 21.8595 9.97391 21.6095 9.72386C21.3594 9.47381 21.0203 9.33333 20.6667 9.33333V12C21.0203 12 21.3594 11.8595 21.6095 11.6095C21.8595 11.3594 22 11.0203 22 10.6667Z" fill="#B8BEA8"/>
<path fill-rule="evenodd" clip-rule="evenodd" d="M0 17.3333C0 16.9797 0.140476 16.6406 0.390524 16.3905C0.640573 16.1405 0.979711 16 1.33333 16H10C10.3536 16 10.6928 16.1405 10.9428 16.3905C11.1929 16.6406 11.3333 16.9797 11.3333 17.3333V22.6667C11.3333 23.0203 11.1929 23.3594 10.9428 23.6095C10.6928 23.8595 10.3536 24 10 24H1.33333C0.979711 24 0.640573 23.8595 0.390524 23.6095C0.140476 23.3594 0 23.0203 0 22.6667V17.3333ZM2.66667 22V18H4V22H2.66667ZM7.33333 18V22H8.66667V18H7.33333ZM3.33333 14.6667C3.33333 14.3131 3.47381 13.9739 3.72386 13.7239C3.97391 13.4738 4.31304 13.3333 4.66667 13.3333H6.66667C7.02029 13.3333 7.35943 13.4738 7.60948 13.7239C7.85952 13.9739 8 14.3131 8 14.6667V16H6.66667V14.6667H4.66667V16H3.33333V14.6667Z" fill="#B8BEA8"/>
</svg>
