<svg width="24" height="24" viewBox="0 0 24 24" fill="none" xmlns="http://www.w3.org/2000/svg">
<g clip-path="url(#clip0_8_25)">
<path d="M23.547 10.9305L13.068 0.451508C12.9245 0.307961 12.7542 0.194089 12.5667 0.116397C12.3792 0.0387062 12.1782 -0.00128174 11.9753 -0.00128174C11.7723 -0.00128174 11.5713 0.0387062 11.3838 0.116397C11.1963 0.194089 11.026 0.307961 10.8825 0.451508L8.44801 2.88601L10.2795 4.71751C10.6996 4.51616 11.1718 4.45015 11.631 4.5286C12.0901 4.60704 12.5137 4.82608 12.843 5.15547C13.1724 5.48486 13.3915 5.90838 13.4699 6.36755C13.5484 6.82673 13.4824 7.29894 13.281 7.71901L16.281 10.719C16.76 10.4902 17.3044 10.4382 17.818 10.572C18.3316 10.7058 18.7814 11.0168 19.0879 11.4502C19.3943 11.8836 19.5377 12.4113 19.4927 12.9402C19.4476 13.469 19.2171 13.965 18.8418 14.3403C18.4665 14.7156 17.9705 14.9461 17.4417 14.9912C16.9128 15.0362 16.3851 14.8928 15.9517 14.5864C15.5183 14.2799 15.2073 13.8301 15.0735 13.3165C14.9396 12.8029 14.9917 12.2585 15.2205 11.7795L12.2205 8.77951C12.1483 8.81292 12.0747 8.84345 12 8.87101V15.1275C12.5004 15.3044 12.9222 15.6526 13.1907 16.1104C13.4593 16.5682 13.5574 17.1062 13.4676 17.6293C13.3778 18.1524 13.1061 18.627 12.7003 18.9691C12.2945 19.3112 11.7808 19.4988 11.25 19.4988C10.7192 19.4988 10.2056 19.3112 9.79976 18.9691C9.39396 18.627 9.12216 18.1524 9.03241 17.6293C8.94266 17.1062 9.04073 16.5682 9.30928 16.1104C9.57784 15.6526 9.9996 15.3044 10.5 15.1275V8.87101C10.2024 8.76592 9.93027 8.5994 9.70124 8.38228C9.47221 8.16515 9.29142 7.90227 9.17061 7.61071C9.0498 7.31916 8.99167 7.00545 9.00001 6.68996C9.00835 6.37448 9.08296 6.06428 9.21901 5.77951L7.38751 3.94801L0.453007 10.8825C0.309235 11.026 0.195172 11.1965 0.117348 11.3841C0.0395243 11.5717 -0.000534058 11.7729 -0.000534058 11.976C-0.000534058 12.1791 0.0395243 12.3803 0.117348 12.5679C0.195172 12.7556 0.309235 12.926 0.453007 13.0695L10.932 23.5485C11.0755 23.6921 11.2458 23.8059 11.4333 23.8836C11.6208 23.9613 11.8218 24.0013 12.0248 24.0013C12.2277 24.0013 12.4287 23.9613 12.6162 23.8836C12.8037 23.8059 12.974 23.6921 13.1175 23.5485L23.547 13.119C23.6908 12.9755 23.8048 12.8051 23.8827 12.6174C23.9605 12.4298 24.0005 12.2286 24.0005 12.0255C24.0005 11.8224 23.9605 11.6212 23.8827 11.4336C23.8048 11.246 23.6908 11.074 23.547 10.9305Z" fill="black"/>
</g>
<defs>
<clipPath id="clip0_8_25">
<rect width="24" height="24" fill="white"/>
</clipPath>
</defs>
</svg>
