<svg width="18" height="24" viewBox="0 0 18 24" fill="none" xmlns="http://www.w3.org/2000/svg">
<path d="M8.49963 23.9394L1.5734 22.0166L0.029892 4.70465H16.9901L15.445 22.0139L8.49963 23.9394Z" fill="#264DE4"/>
<path d="M14.1222 20.9117L15.4425 6.12012H8.50999V22.4676L14.1222 20.9117Z" fill="#2965F1"/>
<path d="M3.56833 12.5409L3.7586 14.6641H8.51001V12.5409H3.56833ZM3.18593 8.24341L3.37893 10.3666H8.51001V8.24341H3.18593ZM8.51001 18.0552L8.5007 18.0576L6.13607 17.4191L5.98489 15.7258H3.85347L4.15091 19.0596L8.50023 20.2669L8.51001 20.2642V18.0552Z" fill="#EBEBEB"/>
<path d="M4.02141 0H6.59293V1.07541H5.09682V2.15083H6.59306V3.22617H4.02141V0ZM7.1073 0H9.67889V0.935136H8.18272V1.12215H9.67889V3.27297H7.10737V2.29097H8.60355V2.10396H7.10724L7.1073 0ZM10.1933 0H12.7649V0.935136H11.2687V1.12215H12.7649V3.27297H10.1933V2.29097H11.6894V2.10396H10.1933L10.1933 0Z" fill="black"/>
<path d="M13.4381 12.5409L13.8214 8.24341H8.50269V10.3666H11.4945L11.3013 12.5409H8.50269V14.6641H11.1172L10.8707 17.4178L8.50262 18.0569V20.2659L12.8554 19.0596L12.8873 18.7008L13.3863 13.111L13.4381 12.5409Z" fill="white"/>
</svg>
