<svg width="18" height="24" viewBox="0 0 18 24" fill="none" xmlns="http://www.w3.org/2000/svg">
<path d="M16.9901 4.70465L15.445 22.0139L8.49963 23.9394L1.5734 22.0166L0.029892 4.70465H16.9901Z" fill="#E44D26"/>
<path d="M8.50999 22.4676L14.1222 20.9117L15.4425 6.12015H8.50999V22.4676Z" fill="#F16529"/>
<path d="M5.50635 10.3667H8.51001V8.24344H3.18593L3.23672 8.81306L3.7586 14.6641H8.51001V12.5409H5.70041L5.50635 10.3667ZM5.98489 15.7258H3.85347L4.15091 19.0596L8.50023 20.2669L8.51001 20.2642V18.0552L8.5007 18.0576L6.13607 17.4192L5.98489 15.7258Z" fill="#EBEBEB"/>
<path d="M1.60783 0H2.68684V1.06604H3.67389V0H4.75296V3.22823H3.67396V2.14724H2.6869V3.22823H1.6079L1.60783 0ZM6.17182 1.07056H5.22206V0H8.20139V1.07056H7.25103V3.22823H6.17202V1.07056H6.17182ZM8.6742 0H9.79928L10.4914 1.13432L11.1828 0H12.3083V3.22823H11.2337V1.62814L10.4914 2.77596H10.4727L9.72994 1.62814V3.22823H8.6742V0ZM12.8453 0H13.9246V2.1612H15.442V3.22823H12.8452L12.8453 0Z" fill="black"/>
<path d="M8.50269 14.6641H11.1172L10.8707 17.4178L8.50262 18.057V20.2659L12.8554 19.0596L12.8873 18.7009L13.3863 13.1111L13.4381 12.5409H8.50269V14.6641ZM8.50269 10.3615V10.3667H13.6313L13.6739 9.88947L13.7707 8.81306L13.8214 8.24344H8.50269V10.3615Z" fill="white"/>
</svg>
