<svg width="35" height="31" viewBox="0 0 35 31" fill="none" xmlns="http://www.w3.org/2000/svg">
<path d="M17.1172 18.4023C18.8388 18.4023 20.2344 17.0067 20.2344 15.2852C20.2344 13.5636 18.8388 12.168 17.1172 12.168C15.3956 12.168 14 13.5636 14 15.2852C14 17.0067 15.3956 18.4023 17.1172 18.4023Z" fill="#61DAFB"/>
<path d="M28.957 10.1445C28.3555 9.92578 27.7266 9.70703 27.0703 9.51563C27.2344 8.85938 27.3711 8.20312 27.4805 7.57422C28.0547 3.96484 27.4258 1.42187 25.6758 0.4375C25.1563 0.136719 24.582 0 23.9258 0C22.0117 0 19.5781 1.42187 17.1172 3.80078C14.6562 1.42187 12.2227 0 10.3086 0C9.65234 0 9.07813 0.136719 8.55859 0.4375C6.80859 1.44922 6.17969 3.99219 6.75391 7.57422C6.86328 8.20312 7 8.85938 7.16406 9.51563C6.50781 9.70703 5.87891 9.89844 5.27734 10.1445C1.85938 11.457 0 13.2617 0 15.2852C0 17.3086 1.88672 19.1133 5.27734 20.4258C5.87891 20.6445 6.50781 20.8633 7.16406 21.0547C7 21.7109 6.86328 22.3672 6.75391 22.9961C6.17969 26.6055 6.80859 29.1484 8.55859 30.1328C9.07813 30.4336 9.65234 30.5703 10.3086 30.5703C12.25 30.5703 14.6836 29.1484 17.1172 26.7695C19.5781 29.1484 22.0117 30.5703 23.9258 30.5703C24.582 30.5703 25.1563 30.4336 25.6758 30.1328C27.4258 29.1211 28.0547 26.5781 27.4805 22.9961C27.3711 22.3672 27.2344 21.7109 27.0703 21.0547C27.7266 20.8633 28.3555 20.6719 28.957 20.4258C32.375 19.1133 34.2344 17.3086 34.2344 15.2852C34.2344 13.2617 32.375 11.457 28.957 10.1445ZM24.9102 1.80469C26.0312 2.46094 26.4141 4.48437 25.9492 7.35547C25.8672 7.92969 25.7305 8.53125 25.5664 9.16016C24.1445 8.83203 22.6406 8.61328 21.0547 8.47656C20.125 7.16406 19.168 5.98828 18.2109 4.92188C20.2344 2.92578 22.2852 1.55859 23.9531 1.55859C24.3086 1.55859 24.6367 1.64062 24.9102 1.80469ZM21.8477 18.0195C21.3555 18.8945 20.7812 19.7695 20.1797 20.6445C19.168 20.7266 18.1562 20.7539 17.1172 20.7539C16.0508 20.7539 15.0391 20.7266 14.0547 20.6445C13.4531 19.7695 12.9062 18.8945 12.4141 18.0195C11.8945 17.1172 11.4023 16.1875 10.9648 15.2852C11.4023 14.3828 11.8945 13.4531 12.4141 12.5508C12.9062 11.6758 13.4805 10.8008 14.082 9.92578C15.0938 9.84375 16.1055 9.81641 17.1445 9.81641C18.2109 9.81641 19.2227 9.84375 20.207 9.92578C20.8086 10.8008 21.3555 11.6758 21.8477 12.5508C22.3672 13.4531 22.8594 14.3828 23.2969 15.2852C22.832 16.1875 22.3672 17.0898 21.8477 18.0195ZM24.1172 17.1172C24.5273 18.0742 24.8555 19.0039 25.1562 19.9336C24.2266 20.1523 23.2422 20.3164 22.2031 20.4531C22.5312 19.9336 22.8867 19.3867 23.1875 18.8125C23.5156 18.2383 23.8164 17.6641 24.1172 17.1172ZM17.1172 24.5273C16.4609 23.8164 15.832 23.0508 15.2305 22.2578C15.8594 22.2852 16.4883 22.3125 17.1172 22.3125C17.7461 22.3125 18.375 22.2852 19.0039 22.2578C18.4023 23.0508 17.7734 23.8164 17.1172 24.5273ZM12.0312 20.4258C10.9922 20.2891 10.0078 20.125 9.07812 19.9063C9.37891 19.0039 9.70703 18.0469 10.1172 17.0898C10.418 17.6367 10.7187 18.2109 11.0469 18.7578C11.375 19.3594 11.7031 19.8789 12.0312 20.4258ZM10.1172 13.4531C9.70703 12.4961 9.37891 11.5664 9.07812 10.6367C10.0078 10.418 10.9922 10.2539 12.0312 10.1172C11.7031 10.6367 11.3477 11.1836 11.0469 11.7578C10.7187 12.332 10.418 12.9062 10.1172 13.4531ZM17.1172 6.04297C17.7734 6.75391 18.4023 7.51953 19.0039 8.3125C18.375 8.28516 17.7461 8.25781 17.1172 8.25781C16.4883 8.25781 15.8594 8.28516 15.2305 8.3125C15.832 7.51953 16.4609 6.75391 17.1172 6.04297ZM23.1875 11.7852L22.2031 10.1445C23.2422 10.2812 24.2266 10.4453 25.1562 10.6641C24.8555 11.5664 24.5273 12.5234 24.1172 13.4805C23.8164 12.9063 23.5156 12.332 23.1875 11.7852ZM8.28516 7.35547C7.82031 4.48437 8.20312 2.46094 9.32422 1.80469C9.59766 1.64062 9.92578 1.55859 10.2812 1.55859C11.9219 1.55859 13.9727 2.89844 16.0234 4.92188C15.0664 5.96094 14.1094 7.16406 13.1797 8.47656C11.5937 8.61328 10.0898 8.85937 8.66797 9.16016C8.50391 8.53125 8.39453 7.92969 8.28516 7.35547ZM1.53125 15.2852C1.53125 14 3.08984 12.6328 5.82422 11.6211C6.37109 11.4023 6.97266 11.2109 7.57422 11.0469C8.01172 12.4141 8.55859 13.8633 9.21484 15.3125C8.55859 16.7617 7.98438 18.1836 7.57422 19.5508C3.80078 18.457 1.53125 16.8164 1.53125 15.2852ZM9.32422 28.7656C8.20312 28.1094 7.82031 26.0859 8.28516 23.2148C8.36719 22.6406 8.50391 22.0391 8.66797 21.4102C10.0898 21.7383 11.5937 21.957 13.1797 22.0938C14.1094 23.4063 15.0664 24.582 16.0234 25.6484C14 27.6445 11.9492 29.0117 10.2812 29.0117C9.92578 29.0117 9.59766 28.9297 9.32422 28.7656ZM25.9492 23.2148C26.4141 26.0859 26.0312 28.1094 24.9102 28.7656C24.6367 28.9297 24.3086 29.0117 23.9531 29.0117C22.3125 29.0117 20.2617 27.6719 18.2109 25.6484C19.168 24.6094 20.125 23.4063 21.0547 22.0938C22.6406 21.957 24.1445 21.7109 25.5664 21.4102C25.7305 22.0391 25.8398 22.6406 25.9492 23.2148ZM28.4102 18.9492C27.8633 19.168 27.2617 19.3594 26.6602 19.5234C26.2227 18.1563 25.6758 16.707 25.0195 15.2578C25.6758 13.8086 26.25 12.3867 26.6602 11.0195C30.4336 12.1133 32.7031 13.7539 32.7031 15.2852C32.7031 16.5703 31.1172 17.9375 28.4102 18.9492Z" fill="#61DAFB"/>
</svg>
