<svg width="20" height="20" viewBox="0 0 20 20" fill="none" xmlns="http://www.w3.org/2000/svg">
<path d="M11.3133 14.3925L7.05499 12.07C6.64623 12.4757 6.1265 12.7514 5.56131 12.8622C4.99612 12.973 4.41078 12.914 3.87909 12.6926C3.34739 12.4712 2.89314 12.0973 2.57361 11.6182C2.25407 11.139 2.08356 10.5759 2.08356 9.99999C2.08356 9.42405 2.25407 8.86099 2.57361 8.38182C2.89314 7.90264 3.34739 7.52879 3.87909 7.30741C4.41078 7.08602 4.99612 7.02701 5.56131 7.1378C6.1265 7.2486 6.64623 7.52424 7.05499 7.92999L11.3133 5.60749C11.1673 4.92227 11.2728 4.20737 11.6105 3.59354C11.9482 2.9797 12.4956 2.50793 13.1526 2.26452C13.8095 2.0211 14.5322 2.0223 15.1883 2.2679C15.8445 2.51349 16.3903 2.98707 16.726 3.60202C17.0617 4.21698 17.1648 4.93222 17.0165 5.61695C16.8682 6.30168 16.4783 6.91015 15.9182 7.33107C15.3582 7.752 14.6653 7.95726 13.9663 7.90932C13.2674 7.86138 12.609 7.56344 12.1117 7.06999L7.85332 9.39249C7.93849 9.79273 7.93849 10.2064 7.85332 10.6067L12.1117 12.93C12.609 12.4365 13.2674 12.1386 13.9663 12.0907C14.6653 12.0427 15.3582 12.248 15.9182 12.6689C16.4783 13.0898 16.8682 13.6983 17.0165 14.383C17.1648 15.0678 17.0617 15.783 16.726 16.398C16.3903 17.0129 15.8445 17.4865 15.1883 17.7321C14.5322 17.9777 13.8095 17.9789 13.1526 17.7355C12.4956 17.492 11.9482 17.0203 11.6105 16.4064C11.2728 15.7926 11.1673 15.0777 11.3133 14.3925Z" fill="#B8BEA8"/>
</svg>
