<svg width="35" height="35" viewBox="0 0 35 35" fill="none" xmlns="http://www.w3.org/2000/svg">
<g clip-path="url(#clip0_34_2)">
<path d="M26.7969 0H8.20312C3.67266 0 0 3.67266 0 8.20312V26.7969C0 31.3273 3.67266 35 8.20312 35H26.7969C31.3273 35 35 31.3273 35 26.7969V8.20312C35 3.67266 31.3273 0 26.7969 0Z" fill="#0073AA"/>
<path d="M5.77146 17.4992C5.77146 22.1415 8.46933 26.1533 12.3814 28.0546L6.78687 12.7262C6.11638 14.228 5.77038 15.8545 5.77146 17.4992ZM25.4171 16.9073C25.4171 15.458 24.8965 14.4542 24.45 13.6728C23.8554 12.7068 23.2981 11.8887 23.2981 10.9226C23.2981 9.84444 24.1158 8.84093 25.2675 8.84093C25.3196 8.84093 25.3689 8.84735 25.4196 8.85022C23.333 6.93862 20.5531 5.77145 17.4996 5.77145C13.4024 5.77145 9.79755 7.87364 7.70056 11.0578C7.97564 11.066 8.23499 11.0719 8.45525 11.0719C9.68202 11.0719 11.5809 10.9229 11.5809 10.9229C12.2131 10.8857 12.2877 11.8143 11.6561 11.8891C11.6561 11.8891 11.0208 11.9639 10.3138 12.0009L14.5846 24.7045L17.1512 17.0069L15.324 12.0005C14.6925 11.9634 14.0942 11.8887 14.0942 11.8887C13.4622 11.8516 13.5363 10.8853 14.1683 10.9226C14.1683 10.9226 16.1051 11.0714 17.2575 11.0714C18.4841 11.0714 20.3831 10.9226 20.3831 10.9226C21.0159 10.8853 21.0901 11.8139 20.4583 11.8887C20.4583 11.8887 19.8216 11.9634 19.116 12.0005L23.3544 24.6079L24.5242 20.6988C25.0313 19.0765 25.4171 17.9114 25.4171 16.9073Z" fill="white"/>
<path d="M17.7055 18.5251L14.1866 28.7503C15.2625 29.0671 16.3782 29.2281 17.4997 29.2281C18.8262 29.2286 20.1431 29.0038 21.3943 28.5633C21.3618 28.512 21.3338 28.4579 21.3109 28.4017L17.7055 18.5251ZM27.7907 11.8724C27.8439 12.2721 27.8703 12.675 27.8697 13.0782C27.8697 14.2684 27.6474 15.6063 26.9779 17.2792L23.3954 27.6369C26.8822 25.6036 29.2275 21.8262 29.2275 17.4994C29.2276 15.4603 28.7068 13.5428 27.7907 11.8724Z" fill="white"/>
<path d="M17.4997 3.82812C9.96133 3.82812 3.82812 9.96092 3.82812 17.4992C3.82812 25.0384 9.96133 31.1709 17.4997 31.1709C25.0377 31.1709 31.1719 25.0384 31.1719 17.4992C31.1716 9.96092 25.0377 3.82812 17.4997 3.82812ZM17.4997 30.5443C10.307 30.5443 4.45498 24.6922 4.45498 17.4992C4.45498 10.3065 10.3068 4.45498 17.4997 4.45498C24.6921 4.45498 30.5437 10.3065 30.5437 17.4992C30.5437 24.6922 24.6921 30.5443 17.4997 30.5443Z" fill="white"/>
</g>
<defs>
<clipPath id="clip0_34_2">
<rect width="35" height="35" fill="white"/>
</clipPath>
</defs>
</svg>
