<svg width="35" height="35" viewBox="0 0 35 35" fill="none" xmlns="http://www.w3.org/2000/svg">
<path fill-rule="evenodd" clip-rule="evenodd" d="M11.5 3C11.6164 2.84476 11.7674 2.71875 11.941 2.63197C12.1146 2.54518 12.3059 2.5 12.5 2.5H22.5C22.6941 2.5 22.8854 2.54518 23.059 2.63197C23.2326 2.71875 23.3836 2.84476 23.5 3L26.875 7.5H31.25C32.2446 7.5 33.1984 7.89509 33.9017 8.59835C34.6049 9.30161 35 10.2554 35 11.25V28.75C35 29.7446 34.6049 30.6984 33.9017 31.4017C33.1984 32.1049 32.2446 32.5 31.25 32.5H3.75C2.75544 32.5 1.80161 32.1049 1.09835 31.4017C0.395088 30.6984 0 29.7446 0 28.75L0 11.25C0 10.2554 0.395088 9.30161 1.09835 8.59835C1.80161 7.89509 2.75544 7.5 3.75 7.5H8.125L11.5 3ZM11.875 17.5C12.1212 17.5 12.365 17.4515 12.5925 17.3573C12.82 17.263 13.0267 17.1249 13.2008 16.9508C13.3749 16.7767 13.513 16.57 13.6073 16.3425C13.7015 16.115 13.75 15.8712 13.75 15.625C13.75 15.3788 13.7015 15.135 13.6073 14.9075C13.513 14.68 13.3749 14.4733 13.2008 14.2992C13.0267 14.1251 12.82 13.987 12.5925 13.8927C12.365 13.7985 12.1212 13.75 11.875 13.75C11.3777 13.75 10.9008 13.9475 10.5492 14.2992C10.1975 14.6508 10 15.1277 10 15.625C10 16.1223 10.1975 16.5992 10.5492 16.9508C10.9008 17.3025 11.3777 17.5 11.875 17.5ZM12.5 21.05C12.3588 20.8933 12.1872 20.7668 11.9958 20.6781C11.8043 20.5895 11.5969 20.5405 11.386 20.5342C11.1752 20.5279 10.9652 20.5644 10.7688 20.6414C10.5724 20.7184 10.3936 20.8344 10.2432 20.9824C10.0929 21.1304 9.97403 21.3073 9.89389 21.5025C9.81375 21.6977 9.77397 21.907 9.77694 22.118C9.77991 22.329 9.82557 22.5371 9.91117 22.73C9.99677 22.9228 10.1205 23.0963 10.275 23.24C11.76 24.75 14.265 26.0275 17.495 26.0275C20.7275 26.0275 23.2325 24.7525 24.72 23.24C24.864 23.0936 24.9777 22.9202 25.0546 22.7299C25.1316 22.5395 25.1703 22.3358 25.1686 22.1305C25.1668 21.9252 25.1247 21.7222 25.0445 21.5331C24.9643 21.3441 24.8477 21.1727 24.7012 21.0287C24.5548 20.8848 24.3815 20.7711 24.1911 20.6941C24.0007 20.6171 23.7971 20.5784 23.5917 20.5802C23.3864 20.5819 23.1834 20.6241 22.9944 20.7043C22.8054 20.7844 22.634 20.9011 22.49 21.0475C21.595 21.96 19.8925 22.9025 17.495 22.9025C15.1 22.9025 13.3975 21.96 12.5025 21.0475M25.0025 15.6225C25.0025 16.1198 24.805 16.5967 24.4533 16.9483C24.1017 17.3 23.6248 17.4975 23.1275 17.4975C22.6302 17.4975 22.1533 17.3 21.8017 16.9483C21.45 16.5967 21.2525 16.1198 21.2525 15.6225C21.2525 15.1252 21.45 14.6483 21.8017 14.2967C22.1533 13.945 22.6302 13.7475 23.1275 13.7475C23.6248 13.7475 24.1017 13.945 24.4533 14.2967C24.805 14.6483 25.0025 15.1252 25.0025 15.6225Z" fill="#B8BEA8"/>
</svg>
