<svg width="20" height="20" viewBox="0 0 20 20" fill="none" xmlns="http://www.w3.org/2000/svg">
<path d="M7.5 14.1667H10.8333C11.9384 14.1667 12.9982 13.7277 13.7796 12.9463C14.561 12.1649 15 11.1051 15 10V9.16667H15.8333C16.4964 9.16667 17.1323 8.90327 17.6011 8.43443C18.0699 7.96559 18.3333 7.32971 18.3333 6.66667C18.3333 6.00363 18.0699 5.36774 17.6011 4.8989C17.1323 4.43006 16.4964 4.16667 15.8333 4.16667H15V3.33333C15 3.11232 14.9122 2.90036 14.7559 2.74408C14.5996 2.5878 14.3877 2.5 14.1667 2.5H4.16667C3.94566 2.5 3.7337 2.5878 3.57742 2.74408C3.42114 2.90036 3.33334 3.11232 3.33334 3.33333V10C3.33334 11.1051 3.77233 12.1649 4.55373 12.9463C5.33513 13.7277 6.39494 14.1667 7.5 14.1667ZM15 5.83333H15.8333C16.0544 5.83333 16.2663 5.92113 16.4226 6.07741C16.5789 6.23369 16.6667 6.44565 16.6667 6.66667C16.6667 6.88768 16.5789 7.09964 16.4226 7.25592C16.2663 7.4122 16.0544 7.5 15.8333 7.5H15V5.83333ZM5.00001 4.16667H13.3333V10C13.3333 10.663 13.0699 11.2989 12.6011 11.7678C12.1323 12.2366 11.4964 12.5 10.8333 12.5H7.5C6.83696 12.5 6.20108 12.2366 5.73224 11.7678C5.2634 11.2989 5.00001 10.663 5.00001 10V4.16667ZM17.5 15.8333H2.50001C2.27899 15.8333 2.06703 15.9211 1.91075 16.0774C1.75447 16.2337 1.66667 16.4457 1.66667 16.6667C1.66667 16.8877 1.75447 17.0996 1.91075 17.2559C2.06703 17.4122 2.27899 17.5 2.50001 17.5H17.5C17.721 17.5 17.933 17.4122 18.0893 17.2559C18.2455 17.0996 18.3333 16.8877 18.3333 16.6667C18.3333 16.4457 18.2455 16.2337 18.0893 16.0774C17.933 15.9211 17.721 15.8333 17.5 15.8333Z" fill="#B8BEA8"/>
</svg>
