<svg width="35" height="32" viewBox="0 0 35 32" fill="none" xmlns="http://www.w3.org/2000/svg">
<path d="M34.5523 13.8235L27.6544 1.88708C27.0564 0.851667 25.5879 0 24.3877 0H10.6064C9.41062 0 7.93624 0.851667 7.33978 1.88708L0.44624 13.8235C-0.151676 14.859 -0.151676 16.555 0.44624 17.5919L7.33687 29.5342C7.93478 30.5696 9.40332 31.4213 10.6035 31.4213H24.3921C25.5879 31.4213 27.055 30.5696 27.6587 29.5342L34.5508 17.5904C35.1487 16.555 35.1487 14.859 34.5508 13.8235H34.5523ZM16.0067 6.60333C16.0067 5.82021 16.6454 5.18146 17.4271 5.18146C18.2087 5.18146 18.8489 5.82021 18.8489 6.60333V15.0923C18.8258 15.4533 18.6661 15.7919 18.4022 16.0394C18.1384 16.2868 17.7903 16.4246 17.4285 16.4246C17.0668 16.4246 16.7187 16.2868 16.4548 16.0394C16.191 15.7919 16.0313 15.4533 16.0081 15.0923L16.0067 6.60333ZM17.4271 24.7304C14.8722 24.7269 12.423 23.7103 10.6168 21.9035C8.81048 20.0966 7.79457 17.6471 7.79187 15.0923C7.79554 13.5896 8.14889 12.1084 8.82394 10.7659C9.499 9.42339 10.4772 8.25641 11.6812 7.35729C11.8146 7.25794 11.9663 7.18591 12.1275 7.14532C12.2888 7.10474 12.4565 7.0964 12.621 7.12079C12.7855 7.14518 12.9435 7.20182 13.0861 7.28745C13.2286 7.37308 13.3529 7.48602 13.4517 7.61979C13.5509 7.75292 13.623 7.90433 13.6637 8.06534C13.7044 8.22635 13.7129 8.3938 13.6888 8.55811C13.6647 8.72242 13.6084 8.88037 13.5231 9.0229C13.4379 9.16543 13.3254 9.28975 13.1921 9.38875C11.7311 10.5317 10.7747 12.2003 10.5267 14.0386C10.2787 15.8769 10.7588 17.7393 11.8647 19.2285C12.9705 20.7178 14.6145 21.7159 16.446 22.0101C18.2774 22.3043 20.1513 21.8711 21.6679 20.8031C22.5582 20.1408 23.2812 19.2794 23.7793 18.2878C24.2773 17.2962 24.5366 16.2019 24.5364 15.0923C24.5332 13.9785 24.2696 12.8809 23.7667 11.887C23.2639 10.8932 22.5356 10.0307 21.6402 9.36833C21.3706 9.1685 21.1912 8.87003 21.1412 8.53823C21.0912 8.20643 21.1747 7.86833 21.3733 7.59792C21.5732 7.32836 21.8716 7.14894 22.2034 7.09893C22.5352 7.04891 22.8733 7.13237 23.1437 7.33104C24.3575 8.22895 25.3441 9.39862 26.0246 10.7464C26.7051 12.0941 27.0604 13.5825 27.0623 15.0923C27.0603 17.6475 26.0444 20.0975 24.2376 21.9043C22.4308 23.7111 19.9808 24.727 17.4256 24.729" fill="#B8BEA8"/>
</svg>
