<svg width="32" height="23" viewBox="0 0 32 23" fill="none" xmlns="http://www.w3.org/2000/svg">
<path d="M15.9629 0L0 5.98623L15.9629 13.9677L23.5658 10.1662L16.4334 7.98554C16.2865 8.05597 16.1258 8.09271 15.9629 8.09307C15.6728 8.09307 15.3946 7.97783 15.1895 7.77271C14.9844 7.5676 14.8691 7.2894 14.8691 6.99932C14.8691 6.70924 14.9844 6.43104 15.1895 6.22592C15.3946 6.0208 15.6728 5.90557 15.9629 5.90557L15.782 6.49359L17.0492 6.88345L17.0497 6.88727L18.9196 7.4591L29.5664 10.7348V11.5651C29.4191 11.6653 29.2986 11.7999 29.2152 11.9573C29.1318 12.1147 29.0881 12.29 29.0879 12.4681C29.0881 12.6503 29.1338 12.8296 29.2208 12.9896C29.3079 13.1497 29.4336 13.2854 29.5864 13.3846C29.0886 15.2662 29.0879 19.5353 29.0879 21.2181C30.1816 21.9287 30.1816 21.9546 31.2754 21.2181C31.2754 19.5355 31.2748 15.2672 30.777 13.3852C30.9299 13.2859 31.0556 13.1501 31.1427 12.9899C31.2297 12.8297 31.2753 12.6504 31.2754 12.4681C31.2754 12.2898 31.2317 12.1142 31.1483 11.9566C31.0649 11.799 30.9443 11.6642 30.7969 11.5639V9.82618L26.7415 8.57842L31.9257 5.98623L15.9629 0ZM6.64022 10.8958L5.74314 16.2784C7.53245 16.5124 9.67285 17.5524 11.6405 18.7822C12.7596 19.4817 13.8077 20.2494 14.659 20.9943C15.1793 21.4496 15.6144 21.8864 15.9629 22.3162C16.3113 21.8863 16.7464 21.4496 17.2668 20.9943C18.118 20.2494 19.1661 19.4817 20.2852 18.7822C22.2529 17.5524 24.3933 16.5124 26.1826 16.2784L25.2854 10.8958H24.8581L15.9629 15.3435L7.06747 10.8958H6.64022Z" fill="#B8BEA8"/>
</svg>
