<svg width="30" height="30" viewBox="0 0 30 30" fill="none" xmlns="http://www.w3.org/2000/svg">
<path d="M0 18.6667C0 16.2444 1.01111 14.3058 3.03333 12.8507C5.05556 11.3956 7.37778 10.6676 10 10.6667C12.6222 10.6658 14.9444 11.3938 16.9667 12.8507C18.9889 14.3076 20 16.2462 20 18.6667H0ZM0 24V21.3333H20V24H0ZM1.33333 29.3333C0.955556 29.3333 0.639111 29.2053 0.384 28.9493C0.128889 28.6933 0.000888889 28.3769 0 28V26.6667H20V28C20 28.3778 19.872 28.6947 19.616 28.9507C19.36 29.2067 19.0436 29.3342 18.6667 29.3333H1.33333ZM22.6667 29.3333V18.6667C22.6667 16.1333 21.8 13.9444 20.0667 12.1C18.3333 10.2556 16.2111 9.02222 13.7 8.4L13.3333 5.33333H20V0H22.6667V5.33333H29.3333L27.1667 26.9333C27.1 27.6222 26.8164 28.1947 26.316 28.6507C25.8156 29.1067 25.2213 29.3342 24.5333 29.3333H22.6667Z" fill="#B8BEA8"/>
</svg>
