<svg width="24" height="24" viewBox="0 0 24 24" fill="none" xmlns="http://www.w3.org/2000/svg">
<path d="M1.5 1.5H22.5V22.5H1.5V1.5Z" fill="#F5DE19"/>
<path d="M15.6068 17.9063C15.786 18.2695 16.064 18.5748 16.409 18.7871C16.7539 18.9993 17.1517 19.11 17.5568 19.1063C18.3743 19.1063 18.897 18.6975 18.897 18.1313C18.897 17.4563 18.36 17.2148 17.46 16.821L16.9665 16.6095C15.5415 16.0028 14.5965 15.243 14.5965 13.6365C14.5965 12.1568 15.7215 11.0295 17.4863 11.0295C18.0575 10.9884 18.6283 11.1163 19.1273 11.3973C19.6264 11.6783 20.0317 12.1 20.2928 12.6098L18.75 13.596C18.6494 13.3433 18.4745 13.127 18.2482 12.976C18.022 12.8249 17.7553 12.7461 17.4833 12.75C17.3646 12.7381 17.2447 12.7511 17.1313 12.7881C17.0179 12.8251 16.9135 12.8853 16.8247 12.9649C16.7358 13.0445 16.6646 13.1417 16.6154 13.2504C16.5662 13.359 16.5402 13.4767 16.539 13.596C16.539 14.1878 16.9058 14.4278 17.7525 14.796L18.246 15.0075C19.923 15.7268 20.871 16.4595 20.871 18.1073C20.871 19.884 19.4753 20.8575 17.601 20.8575C16.8708 20.9036 16.1429 20.7376 15.5048 20.3795C14.8668 20.0214 14.3459 19.4865 14.0048 18.8393L15.6068 17.9063ZM8.63551 18.0773C8.94526 18.627 9.22726 19.092 9.90526 19.092C10.5533 19.092 10.9628 18.8385 10.9628 17.8523V11.142H12.936V17.8785C12.936 19.9215 11.736 20.8515 9.98926 20.8515C9.37182 20.8853 8.75862 20.7314 8.23027 20.4101C7.70192 20.0889 7.28315 19.6152 7.02901 19.0515L8.63551 18.0773Z" fill="black"/>
</svg>
